<svg width="150" height="28" viewBox="0 0 150 28" fill="none" xmlns="http://www.w3.org/2000/svg">
<mask id="mask0_175_26" style="mask-type:alpha" maskUnits="userSpaceOnUse" x="0" y="0" width="150" height="28">
<g clip-path="url(#clip0_175_26)">
<path d="M0 0H10.9969C13.0915 0 14.6625 0.523662 15.8262 1.39643C17.1063 2.44376 17.8045 3.95656 17.8045 5.81846C17.8045 7.9713 16.9317 9.30954 15.1862 10.1241V10.2405C17.5136 10.9969 18.8518 13.0915 18.8518 15.5935C18.8518 17.9791 17.9209 19.841 16.4081 21.0047C15.128 21.9356 13.4988 22.3429 11.2878 22.3429H0V0ZM9.89139 8.7277C11.0551 8.7277 11.9279 8.08767 11.9279 6.74942C11.9279 5.46936 11.0551 4.82933 9.8332 4.82933H6.0512V8.66951H9.89139V8.7277ZM10.415 17.3972C11.7533 17.3972 12.7424 16.5826 12.7424 15.128C12.7424 13.557 11.6951 12.8588 10.415 12.8588H6.10939V17.4554H10.415V17.3972Z" fill="black"/>
<path d="M19.8409 0H25.6012V22.4011H19.8409V0Z" fill="black"/>
<path d="M26.7649 14.4298C26.7649 9.36775 30.0232 5.99304 35.0853 5.99304C40.1474 5.99304 43.3475 9.42594 43.3475 14.4298C43.3475 19.4919 40.1474 22.8666 35.0853 22.8666C30.0232 22.8666 26.7649 19.4919 26.7649 14.4298ZM37.5872 14.4298C37.5872 11.637 36.7145 9.89141 34.9689 9.89141C33.2234 9.89141 32.4088 11.637 32.4088 14.4298C32.4088 17.2227 33.2234 19.0264 34.9689 19.0264C36.7145 18.9682 37.5872 17.2227 37.5872 14.4298Z" fill="black"/>
<path d="M43.9875 14.4298C43.9875 9.36775 47.2459 5.99304 52.3079 5.99304C57.37 5.99304 60.512 9.36775 60.512 14.4298C60.512 19.4919 57.3118 22.8666 52.2498 22.8666C47.2459 22.8666 43.9875 19.4919 43.9875 14.4298ZM54.8099 14.4298C54.8099 11.637 53.9371 9.89141 52.1916 9.89141C50.446 9.89141 49.6315 11.637 49.6315 14.4298C49.6315 17.2227 50.446 19.0264 52.1916 19.0264C53.9371 18.9682 54.8099 17.2227 54.8099 14.4298Z" fill="black"/>
<path d="M61.6758 6.40029H67.0288V8.78586H67.1451C68.1925 6.92395 69.6471 5.93481 71.9745 5.93481C74.0109 5.93481 75.5237 6.92395 76.2801 8.66949H76.3965C77.6766 6.57485 79.3639 5.93481 81.3422 5.93481C85.066 5.93481 86.637 8.66949 86.637 12.3351V22.3429H81.0513V13.3243C81.0513 11.6951 80.5276 10.6478 79.1312 10.6478C77.7347 10.6478 77.0365 11.9278 77.0365 13.6734V22.3429H71.4508V13.3243C71.4508 11.6951 70.9271 10.6478 69.5307 10.6478C68.1343 10.6478 67.4361 11.9278 67.4361 13.6734V22.3429H61.6758V6.40029Z" fill="black"/>
<path d="M93.6773 20.2483H93.6191V22.3429H88.2661V0H93.8518V8.02948H93.9682C95.0155 6.63305 96.4701 5.87665 98.5066 5.87665C102.521 5.87665 104.849 9.4841 104.849 14.3134C104.849 19.7246 102.347 22.8666 98.1575 22.8666C96.412 22.8666 94.6082 22.052 93.6773 20.2483ZM99.0884 14.2552C99.0884 11.6951 98.1575 10.0078 96.4701 10.0078C94.7246 10.0078 93.6773 11.6951 93.6773 14.2552C93.6773 16.8154 94.7828 18.5027 96.4701 18.5027C98.1575 18.5027 99.0884 16.8735 99.0884 14.2552Z" fill="black"/>
<path d="M105.489 14.3716C105.489 9.36771 108.805 5.93481 113.576 5.93481C115.962 5.93481 117.766 6.69121 119.162 8.02946C121.024 9.83319 121.839 12.626 121.78 15.8844H111.074C111.307 17.8627 112.238 18.91 113.926 18.91C114.915 18.91 115.787 18.4445 116.137 17.3972H121.548C120.617 21.0628 117.766 22.8665 113.751 22.8665C108.805 22.8084 105.489 19.4337 105.489 14.3716ZM111.074 12.6842H116.195C116.078 10.7641 115.031 9.775 113.693 9.775C112.122 9.71682 111.249 10.8223 111.074 12.6842Z" fill="black"/>
<path d="M128.123 9.13493H128.239C129.403 6.92392 130.915 6.05115 132.836 6.05115C133.301 6.05115 133.592 6.10933 133.767 6.2257V11.1132H133.65C130.334 10.5314 128.414 12.1024 128.414 15.7098V22.401H122.77V6.40026H128.123V9.13493Z" fill="black"/>
<path d="M134.348 22.4011H139.759C139.992 23.0994 140.69 23.7394 142.029 23.7394C143.832 23.7394 144.472 22.6339 144.472 20.9465V19.7828H144.356C143.483 20.8302 142.261 21.5866 140.516 21.5866C137.083 21.5866 134.057 19.0264 134.057 14.0226C134.057 9.42597 136.501 5.87671 140.225 5.87671C142.378 5.87671 143.658 6.74948 144.531 8.08773H144.647V6.34219H150V20.1901C150 22.7503 149.127 24.7285 147.789 25.8922C146.393 27.1141 144.414 27.6378 142.145 27.6378C137.839 27.6959 134.872 25.9504 134.348 22.4011ZM144.705 13.7898C144.705 11.8115 143.774 10.1824 142.145 10.1824C140.574 10.1824 139.585 11.5788 139.585 13.7898C139.585 15.9427 140.574 17.4555 142.145 17.4555C143.716 17.4555 144.705 15.8845 144.705 13.7898Z" fill="black"/>
</g>
</mask>
<g mask="url(#mask0_175_26)">
<rect x="-29.25" y="-59.25" width="208.5" height="144.75" fill="#838383"/>
</g>
<defs>
<clipPath id="clip0_175_26">
<rect width="150" height="27.6959" fill="white"/>
</clipPath>
</defs>
</svg>
