<svg width="158" height="26" viewBox="0 0 158 26" fill="none" xmlns="http://www.w3.org/2000/svg">
<g filter="url(#filter0_d_175_11)">
<mask id="mask0_175_11" style="mask-type:alpha" maskUnits="userSpaceOnUse" x="4" y="0" width="150" height="18">
<g clip-path="url(#clip0_175_11)">
<path d="M23.3931 17.1852H28.8716L31.8086 0.375H26.3302L25.2471 6.395H20.4977L21.5809 0.375H16.1025L13.1654 17.1852H18.6438L19.7478 10.8944H24.4972L23.3931 17.1852Z" fill="white"/>
<path d="M34.9123 0.354077L33.2459 9.70695C33.1001 10.436 33.0376 11.1442 33.0376 11.8108C33.0376 16.7685 37.3703 17.5184 39.9741 17.5184C45.4317 17.5184 47.7856 15.7061 48.6396 10.811L50.4727 0.333252H44.9943L43.432 9.12369C42.9321 11.8733 42.5779 13.3106 40.5366 13.3106C39.2034 13.3106 38.5577 12.6024 38.5577 11.1442C38.5577 10.5818 38.641 9.89442 38.8076 9.04037L40.3907 0.333252H34.9123V0.354077Z" fill="white"/>
<path d="M79.427 17.1851H84.9054L85.6761 12.8524H88.2591C93.0293 12.8524 95.6747 10.2694 95.6747 5.56174C95.6747 2.2497 93.3834 0.354126 89.3631 0.354126H82.3641L79.427 17.1851ZM87.9675 8.70713H86.3844L87.1134 4.74935H88.5924C89.8006 4.74935 90.4463 5.35343 90.4463 6.45745C90.4463 7.85309 89.5089 8.70713 87.9675 8.70713Z" fill="white"/>
<path d="M106.319 0C100.362 0 96.7996 3.85363 96.7996 10.3319C96.7996 14.8313 99.6325 17.5392 104.382 17.5392C110.339 17.5392 113.901 13.6856 113.901 7.20733C113.922 2.68713 111.089 0 106.319 0ZM104.715 13.1857C103.299 13.1857 102.465 12.165 102.465 10.4569C102.465 9.81113 102.528 9.24871 102.653 8.60297C103.07 6.39494 103.778 4.37439 106.007 4.37439C107.423 4.37439 108.256 5.39508 108.256 7.10318C108.256 7.74892 108.194 8.31134 108.069 8.95709C107.652 11.1443 106.944 13.1857 104.715 13.1857Z" fill="white"/>
<path d="M132.961 17.1852H138.44L140.606 4.87438H144.73L145.522 0.375H131.503L130.712 4.87438H135.086L132.961 17.1852Z" fill="white"/>
<path d="M123.879 6.58242C122.15 6.04083 121.442 5.81169 121.442 4.9993C121.442 4.45771 121.796 3.81197 122.838 3.81197C123.608 3.81197 124.254 4.24941 124.504 4.89515L129.337 3.58283C128.774 1.20816 126.733 0 123.213 0C116.589 0 116.068 4.43688 116.068 5.79086C116.068 8.54048 117.526 10.2277 120.692 11.1026C121.525 11.3318 122.484 11.5817 122.484 12.4983C122.484 13.2273 121.942 13.6856 121.005 13.6856C120.151 13.6856 119.234 13.1857 118.922 12.3108L114.151 13.6023C114.672 16.1019 117.026 17.5184 120.713 17.5184C123.525 17.5184 128.233 16.7685 128.233 11.6859C128.254 9.14456 126.816 7.47813 123.879 6.58242Z" fill="black"/>
<path d="M10.1033 17.1852L13.0612 0.375H4V17.1852H10.1033Z" fill="#0DBE98"/>
<path d="M147.876 0.375L144.939 17.1852H154V0.375H147.876Z" fill="#0DBE98"/>
<path d="M57.0134 12.2275H61.617L62.3669 7.9989H57.7633L58.2841 4.87433H64.7207L65.5123 0.354126H53.5972L50.6602 17.1851H56.1386L57.0134 12.2275Z" fill="black"/>
<path d="M71.3657 12.2275H75.99L76.7399 7.9989H72.1364L72.6571 4.87433H79.0937L79.8853 0.354126H67.9703L65.0332 17.1851H70.5116L71.3657 12.2275Z" fill="black"/>
</g>
</mask>
<g mask="url(#mask0_175_11)">
<rect x="-136.25" y="-89.25" width="833.25" height="336.75" fill="#838383"/>
</g>
</g>
<defs>
<filter id="filter0_d_175_11" x="0" y="0" width="158" height="25.5392" filterUnits="userSpaceOnUse" color-interpolation-filters="sRGB">
<feFlood flood-opacity="0" result="BackgroundImageFix"/>
<feColorMatrix in="SourceAlpha" type="matrix" values="0 0 0 0 0 0 0 0 0 0 0 0 0 0 0 0 0 0 127 0" result="hardAlpha"/>
<feOffset dy="4"/>
<feGaussianBlur stdDeviation="2"/>
<feComposite in2="hardAlpha" operator="out"/>
<feColorMatrix type="matrix" values="0 0 0 0 0 0 0 0 0 0 0 0 0 0 0 0 0 0 0.25 0"/>
<feBlend mode="normal" in2="BackgroundImageFix" result="effect1_dropShadow_175_11"/>
<feBlend mode="normal" in="SourceGraphic" in2="effect1_dropShadow_175_11" result="shape"/>
</filter>
<clipPath id="clip0_175_11">
<rect width="150" height="17.5392" fill="white" transform="translate(4)"/>
</clipPath>
</defs>
</svg>
