<svg width="150" height="75" viewBox="0 0 150 75" fill="none" xmlns="http://www.w3.org/2000/svg">
<path d="M17.9562 15.9938V29.6538L57.2062 29.6525V15.9938H17.9562ZM51.8 19.675L52.1675 19.6825C52.24 19.685 52.2987 19.7488 52.2987 19.8075V25.8988L51.7987 25.4688C51.82 25.4313 51.8362 25.3938 51.8362 25.3438V19.7725C51.83 19.74 51.8212 19.715 51.8112 19.6913L51.8 19.675ZM52.1475 26H49.05C49.036 25.9167 49.0041 25.8374 48.9567 25.7675C48.9092 25.6976 48.8472 25.6388 48.775 25.595H51.56C51.5898 25.5966 51.6194 25.5906 51.6462 25.5775L52.1475 26ZM45.4637 19.7675C45.5388 19.7143 45.6261 19.6808 45.7175 19.67C45.745 19.67 45.78 19.665 45.8112 19.665H45.8387C46.4012 19.665 47.07 19.7063 47.5887 19.9C48.1075 20.0938 48.4562 20.4163 48.4575 21.025H48.645C48.6487 20.4275 48.9975 20.1125 49.5175 19.9C50.0175 19.705 50.705 19.665 51.2612 19.665H51.3237C51.3512 19.665 51.3737 19.67 51.3987 19.67C51.4535 19.6786 51.5072 19.6933 51.5587 19.7138C51.5925 19.7313 51.6175 19.7475 51.6312 19.7575L51.6387 25.3288C51.6387 25.375 51.6012 25.41 51.5637 25.41H45.5387C45.4975 25.41 45.4637 25.3725 45.4637 25.3288V19.7663V19.7675ZM45.5387 25.5963H48.1662C48.0237 25.6838 47.92 25.8463 47.8912 26.0013H44.925C44.9125 26.0013 44.905 25.9988 44.8925 25.9988L45.41 25.5613C45.45 25.5838 45.4937 25.5988 45.5387 25.5988V25.5963ZM44.805 19.7963C44.805 19.75 44.8587 19.6875 44.9325 19.6713L45.3037 19.6638C45.2891 19.689 45.2801 19.7172 45.2775 19.7463V25.3175C45.2775 25.3475 45.2825 25.3775 45.2925 25.4025L44.7925 25.8188V19.7813L44.805 19.7963ZM41.2762 19.6938C41.345 19.6938 41.4062 19.765 41.4062 19.8188V25.8688L40.9087 25.4513C40.9231 25.4207 40.9307 25.3875 40.9312 25.3538V19.7788C40.925 19.7463 40.9162 19.7263 40.9062 19.7038L41.275 19.705L41.2762 19.6938ZM41.2962 26.0138H38.1562C38.1448 25.931 38.1157 25.8515 38.0711 25.7808C38.0265 25.7101 37.9673 25.6498 37.8975 25.6038H40.6687C40.7062 25.6038 40.7437 25.5938 40.7937 25.5788L41.2962 26.0138ZM37.7462 20.8363C37.75 20.3138 38.0237 20.0363 38.4275 19.87C38.8312 19.7038 39.355 19.665 39.7925 19.665L40.4925 19.6775C40.5511 19.6848 40.6081 19.7017 40.6612 19.7275C40.6912 19.74 40.7212 19.76 40.7362 19.7725L40.7425 19.7775V25.345C40.7425 25.3863 40.7087 25.4163 40.67 25.4163H37.7475L37.7462 20.8363ZM34.5675 19.7763C34.5825 19.7675 34.6262 19.735 34.6775 19.7138C34.7263 19.6966 34.7771 19.6861 34.8287 19.6825L35.5412 19.6638C35.9737 19.6638 36.4962 19.7013 36.8962 19.8688C37.2925 20.0438 37.5612 20.3138 37.5625 20.835V25.4138H34.65C34.6037 25.4138 34.57 25.3838 34.57 25.3425V19.775L34.5675 19.7763ZM34.6475 25.6013H37.2575C37.1872 25.647 37.1275 25.7073 37.0825 25.778C37.0374 25.8487 37.008 25.9282 36.9962 26.0113H34.0287C34.0162 26.0113 34.0037 26.0113 33.9887 26.005L34.5137 25.565C34.5512 25.59 34.5962 25.6013 34.6475 25.6013ZM33.9075 19.805C33.9075 19.765 33.965 19.68 34.0387 19.68L34.4075 19.6788C34.395 19.7013 34.3862 19.7225 34.3825 19.7538V25.3288C34.3839 25.3559 34.3903 25.3826 34.4012 25.4075L33.9087 25.8238L33.9075 19.805ZM30.0112 19.68L30.3787 19.6813C30.4475 19.6813 30.51 19.7525 30.51 19.8063V25.8713L30.01 25.4463C30.0225 25.4138 30.0325 25.3788 30.0325 25.3413V19.7663C30.0312 19.735 30.0225 19.7138 30.01 19.6913L30.0112 19.68ZM30.3937 26.0013H27.26C27.248 25.9189 27.2191 25.8399 27.175 25.7693C27.1309 25.6987 27.0726 25.6381 27.0037 25.5913H29.7712C29.8087 25.5913 29.8487 25.585 29.8812 25.5713L30.3937 26.0013ZM26.8537 20.8238C26.8575 20.3013 27.1287 20.0238 27.5312 19.8575C27.9337 19.6913 28.4612 19.6525 28.9012 19.6525L29.5962 19.665C29.6137 19.665 29.7 19.6825 29.765 19.715C29.7922 19.7267 29.8178 19.7419 29.8412 19.76L29.8475 19.765V25.3325C29.8475 25.3738 29.8137 25.4038 29.77 25.4038H26.85L26.8537 20.8238ZM23.6712 19.7638C23.6862 19.755 23.7312 19.7225 23.7962 19.7013C23.8448 19.685 23.8952 19.6745 23.9462 19.67L24.6562 19.6513C25.09 19.6513 25.6087 19.6888 26.0087 19.8563C26.4062 20.0313 26.675 20.3013 26.68 20.8225L26.6787 25.4013H23.75C23.7062 25.4013 23.67 25.3713 23.67 25.33L23.6712 19.7638ZM23.75 25.6H26.375C26.2325 25.6938 26.1412 25.84 26.115 26.01H23.125C23.1 26.01 23.0837 26.01 23.0712 26.0013L23.5925 25.5563C23.6337 25.5838 23.6875 25.6 23.7387 25.6H23.75ZM23 19.8038C23 19.7638 23.0575 19.6788 23.1287 19.6788L23.4937 19.6775C23.4812 19.7 23.4762 19.7175 23.4712 19.7525V25.3275C23.4712 25.3488 23.4762 25.3688 23.4837 25.395L23 25.805V19.8038ZM22.345 26.4588C22.2475 26.4588 22.1737 26.3775 22.1737 26.2838V25.3713C21.9175 25.3388 21.7187 25.1788 21.7187 24.99C21.7187 24.8013 21.9187 24.64 22.1737 24.6063V21.6625C21.9175 21.625 21.7187 21.47 21.7187 21.2813C21.7187 21.0925 21.9187 20.9363 22.1737 20.8988V19.7313C22.1737 19.6363 22.2487 19.5625 22.345 19.5625L22.855 19.6625C22.83 19.7 22.8137 19.75 22.8125 19.8025V25.91C22.8137 26.0788 22.9587 26.1975 23.1225 26.1975H26.09C26.105 26.295 26.1462 26.3825 26.205 26.4575L22.345 26.4588ZM26.8387 26.4588H26.495C26.4263 26.4249 26.3684 26.3726 26.3278 26.3077C26.2872 26.2428 26.2654 26.1678 26.265 26.0913C26.265 25.9849 26.3073 25.8828 26.3825 25.8075C26.4578 25.7323 26.5598 25.69 26.6662 25.69C26.7727 25.69 26.8747 25.7323 26.95 25.8075C27.0252 25.8828 27.0675 25.9849 27.0675 26.0913C27.0675 26.2538 26.9737 26.3913 26.8375 26.4588H26.8387ZM31.5712 24.9913C31.5712 25.1788 31.3737 25.3338 31.1187 25.3725V26.285C31.1187 26.3763 31.0437 26.46 30.9475 26.46H27.125C27.1827 26.3826 27.2228 26.2934 27.2425 26.1988H30.3725C30.5312 26.1988 30.6762 26.08 30.6762 25.9113V19.8038C30.6762 19.7338 30.6512 19.6738 30.6137 19.6263L30.9462 19.5638C31.0425 19.5638 31.1175 19.6388 31.1175 19.7325V20.9013C31.3737 20.9388 31.57 21.0913 31.57 21.2825C31.57 21.4738 31.3725 21.6263 31.1175 21.6638V24.6075C31.375 24.645 31.5712 24.805 31.5712 24.9913ZM33.2337 26.4588C33.14 26.4588 33.0662 26.3775 33.0662 26.2838V25.3713C32.8162 25.3388 32.6087 25.1788 32.6087 24.99C32.6087 24.8013 32.8037 24.64 33.0662 24.6063V21.6625C32.8162 21.625 32.6087 21.47 32.6087 21.2813C32.6087 21.0925 32.8037 20.9363 33.0662 20.8988V19.7313C33.0662 19.6363 33.1387 19.5625 33.2337 19.5625L33.7337 19.6625C33.7087 19.7025 33.6962 19.75 33.6962 19.8025V25.91C33.6962 26.0788 33.8387 26.1975 34.0025 26.1975H36.9712C36.9886 26.292 37.028 26.3811 37.0862 26.4575L33.2337 26.4588ZM37.73 26.4588H37.3837C37.2537 26.3913 37.1562 26.255 37.1562 26.0913C37.1562 25.8738 37.3375 25.6938 37.5612 25.6938C37.6671 25.6934 37.7688 25.7351 37.844 25.8096C37.9192 25.8841 37.9618 25.9854 37.9625 26.0913C37.9637 26.2538 37.865 26.3913 37.73 26.4588ZM42.4625 24.9913C42.4625 25.1788 42.27 25.3338 42.0125 25.3725V26.285C42.0122 26.3308 41.9939 26.3746 41.9617 26.4071C41.9294 26.4396 41.8857 26.4581 41.84 26.4588H38.0212C38.0785 26.3813 38.1177 26.2921 38.1362 26.1975H41.2637C41.4262 26.1975 41.5737 26.0788 41.5737 25.91V19.8025C41.5737 19.7325 41.5487 19.6725 41.5087 19.625L41.8412 19.5625C41.9387 19.5625 42.0137 19.6375 42.0137 19.7313V20.9C42.2712 20.9375 42.4637 21.09 42.4637 21.2813C42.4637 21.4725 42.2712 21.625 42.0137 21.6625V24.6063C42.2712 24.6438 42.4637 24.8038 42.4637 24.99L42.4625 24.9913ZM44.1287 26.4588C44.0412 26.4588 43.96 26.3775 43.96 26.2838V25.3713C43.71 25.3388 43.5062 25.1788 43.5062 24.99C43.5062 24.8013 43.7 24.64 43.96 24.6063V21.6625C43.71 21.625 43.5062 21.47 43.5062 21.2813C43.5062 21.0925 43.7 20.9363 43.96 20.8988V19.7313C43.96 19.6363 44.0387 19.5625 44.1287 19.5625L44.635 19.6625C44.614 19.7028 44.6021 19.7472 44.6 19.7925V25.9C44.6037 26.065 44.745 26.1825 44.9075 26.1825H47.875C47.8925 26.285 47.9375 26.375 47.9962 26.4575L44.1287 26.4588ZM48.6262 26.4588H48.2825C48.1575 26.3913 48.0537 26.255 48.0537 26.0913C48.0544 25.9861 48.0965 25.8853 48.1709 25.8109C48.2453 25.7365 48.346 25.6944 48.4512 25.6938C48.6762 25.6938 48.8575 25.8738 48.8575 26.0913C48.8575 26.2538 48.7587 26.3913 48.6262 26.4588ZM53.36 24.9913C53.36 25.1788 53.1637 25.3413 52.9012 25.3725V26.285C52.9012 26.3763 52.8287 26.46 52.735 26.46H48.9125C48.9747 26.3797 49.0159 26.2852 49.0325 26.185H52.155C52.32 26.185 52.4675 26.0675 52.4675 25.8975V19.7938C52.4675 19.7288 52.445 19.6738 52.4125 19.6263L52.735 19.5638C52.8287 19.5638 52.9012 19.6388 52.9012 19.7325V20.9C53.1512 20.9375 53.36 21.09 53.36 21.2825C53.36 21.475 53.1637 21.6263 52.9012 21.6638V24.6075C53.1512 24.645 53.36 24.805 53.36 24.9913ZM28.365 23.9413C28.1725 23.9413 28.1187 23.8938 28.1187 23.7163V22.7388C28.4087 22.7388 28.5587 22.8575 28.5962 23.3638H28.6687V22H28.5962C28.5487 22.5 28.4012 22.6075 28.1187 22.6025V21.665C28.1187 21.49 28.1687 21.4775 28.3312 21.4775C28.7275 21.4775 28.9362 21.5775 29.0012 22.1525H29.0737V21.3375H27.3787V21.4413C27.5037 21.4538 27.6287 21.46 27.6287 21.7288V23.6875C27.6287 23.93 27.5375 23.9463 27.3787 23.9688V24.0713H29.1012L29.22 23.2275H29.135C28.95 23.8525 28.655 23.945 28.3637 23.945L28.365 23.9413ZM49.975 23.8588C50.0662 23.8588 50.1962 23.9838 50.4787 23.9838C51.0162 23.9838 51.2062 23.4938 51.2062 23.1338C51.2062 22.6963 50.985 22.4613 50.8812 22.3838L50.4537 22.09C50.2037 21.9213 50.15 21.8325 50.15 21.615C50.15 21.365 50.3125 21.2313 50.4625 21.2313C50.8125 21.2313 50.9875 21.6938 51.0425 21.975H51.1225V21.1H51.0387C51.0212 21.1813 51.0075 21.2413 50.9387 21.2413C50.8562 21.2413 50.7175 21.1063 50.4825 21.1063C49.9225 21.1063 49.8325 21.6563 49.8325 21.9063C49.8325 22.0938 49.8325 22.4388 50.3362 22.7813L50.5337 22.9063C50.7212 23.0288 50.8587 23.1275 50.8587 23.4063C50.8587 23.465 50.85 23.865 50.4837 23.865C50.1087 23.865 49.9375 23.4025 49.8775 22.9975H49.7925V23.9975H49.8775C49.8925 23.9313 49.9025 23.8725 49.965 23.8725L49.975 23.8588ZM24.3 21.665L25.05 24.0863H25.1287L25.7987 21.7163C25.8675 21.4913 25.9037 21.41 26.0637 21.385V21.2825H25.4387V21.385C25.6075 21.3975 25.6925 21.41 25.6925 21.5675C25.6925 21.65 25.66 21.755 25.635 21.8488L25.26 23.1738L24.8787 21.8988C24.8512 21.7988 24.7875 21.6263 24.7875 21.5488C24.7875 21.3988 24.8575 21.3988 25.0437 21.3825V21.28H24.0437V21.3825C24.1687 21.4075 24.215 21.42 24.29 21.6625L24.3 21.665ZM36.0212 23.89C35.8312 23.8525 35.765 23.84 35.765 23.52V22.7275H35.8437L36.4537 23.995H37.0537V23.89C37.0162 23.89 36.9725 23.8888 36.9325 23.815L36.3412 22.665C36.4987 22.5925 36.8012 22.47 36.8012 21.97C36.8012 21.2913 36.1812 21.26 35.9762 21.26H35.03V21.3675C35.1975 21.38 35.29 21.3875 35.29 21.7325V23.52C35.29 23.845 35.2275 23.8575 35.03 23.89V23.995H36.0212V23.89ZM35.765 21.57C35.7775 21.4413 35.785 21.3988 35.95 21.3988C36.1837 21.3988 36.3037 21.5738 36.3037 21.9813C36.3037 22.5025 36.1537 22.6063 35.7662 22.5963L35.765 21.57ZM46.3112 21.3925V23.5175C46.3112 23.855 46.2437 23.8675 46.0262 23.8875V23.9925H47.0787V23.875C46.8575 23.855 46.7875 23.8463 46.7875 23.505V21.38C46.99 21.3888 47.2937 21.4175 47.35 22.0638H47.4375L47.4337 21.2388H45.6675L45.6612 22.0538H45.7487C45.8037 21.4038 46.1037 21.3788 46.3112 21.37V21.3925ZM48.0987 23.8863C47.9987 23.8775 47.8562 23.8663 47.8562 23.7138C47.8562 23.645 47.9062 23.4788 47.99 23.185H48.65C48.6875 23.315 48.7787 23.6163 48.7787 23.7263C48.7787 23.86 48.7287 23.8663 48.5487 23.8863V23.9813H49.4987V23.875C49.3587 23.8838 49.3112 23.7425 49.1787 23.3125L48.5262 21.1875H48.445L47.795 23.4C47.7037 23.705 47.6637 23.8438 47.505 23.875V23.97H48.1012L48.0987 23.8863ZM48.3075 22.0525L48.6025 23.0313H48.03L48.3075 22.0525ZM38.6825 21.3675C38.8075 21.3763 38.955 21.385 38.955 21.6475V23.6013C38.955 23.8513 38.84 23.8688 38.6825 23.8888V23.9938H39.7125V23.8888C39.55 23.8763 39.4325 23.86 39.4325 23.6013V21.6513C39.4325 21.3813 39.5725 21.3763 39.7125 21.3713V21.25H38.6825V21.3675ZM44.6625 30.9175C44.9119 31.2999 45.0796 31.7297 45.155 32.18C45.3675 33.4513 44.7475 34.795 42.4237 34.93C42.3862 36.835 41.9175 37.6138 39.5012 37.655C39.71 39.6825 38.6512 40.3425 37.51 40.3425C36.3687 40.3425 35.3037 39.6838 35.5137 37.655C33.0975 37.6113 32.6312 36.8325 32.5887 34.93C30.2637 34.8088 29.6475 33.465 29.8637 32.18C29.9337 31.7275 30.1087 31.2888 30.3537 30.93H17.9537V31.56C17.975 54.875 37.2337 64.9 37.2912 64.9313L37.5825 65.0875L37.8787 64.9313C37.9362 64.9 57.1975 54.8625 57.2162 31.56V30.93L44.6625 30.9175ZM28.575 52.3C29.0375 52.0575 29.3912 51.3463 29.475 50.8625C29.6 50.2375 29.7175 49.9875 30.05 49.965C30.3825 49.9425 30.5125 50.2375 30.625 50.8625C30.7075 51.3463 31.06 52.0563 31.5225 52.3C31.81 52.4525 32.74 52.475 32.5512 53.02C32.4225 53.2675 32.2512 53.775 32.0012 53.55C31.7512 53.325 31.3112 52.7375 31.1262 52.7C30.9587 52.6713 30.9825 52.925 31.0537 53.0125C31.1512 53.1225 31.445 53.55 31.6125 53.7463C31.825 53.9863 31.89 54.4275 31.5187 54.6013C31.1475 54.775 30.7687 54.5538 30.7775 54.355C30.79 54.055 30.6112 53.1988 30.4487 53.1988C30.32 53.1988 30.315 53.4238 30.3287 53.6638C30.2787 54.1688 30.6162 54.5725 30.5787 54.8325C30.5325 55.085 30.4787 55.3538 30.0362 55.3488C29.5912 55.3363 29.5362 55.0988 29.4937 54.8325C29.4525 54.5825 29.7937 54.1675 29.7387 53.6638C29.7537 53.4225 29.7487 53.1988 29.62 53.1988C29.4625 53.1988 29.275 54.0563 29.295 54.355C29.3025 54.555 28.92 54.7763 28.55 54.6013C28.18 54.4263 28.245 53.985 28.4537 53.7463C28.6225 53.5488 28.92 53.1238 29.0162 53.0125C29.085 52.925 29.1137 52.6713 28.9437 52.7C28.7725 52.7375 28.3387 53.3225 28.0837 53.55C27.8287 53.7775 27.6612 53.2675 27.5337 53.02C27.3462 52.4763 28.2737 52.4525 28.5625 52.3H28.575ZM28.8925 50.7C29.1887 50.6663 29.04 50.975 29.0087 51.25C28.9775 51.525 28.9037 51.55 28.6175 51.165C28.3312 50.78 28.5712 50.7363 28.8925 50.7025V50.7ZM31.1925 50.7275C31.5112 50.77 31.755 50.815 31.4675 51.19C31.18 51.575 31.1075 51.545 31.075 51.2775C31.0425 51.01 30.8937 50.6975 31.1925 50.725V50.7275ZM44.8925 53.1988C44.7337 53.1988 44.555 54.0563 44.5675 54.355C44.575 54.555 44.1975 54.7763 43.8237 54.6013C43.45 54.4263 43.52 53.985 43.73 53.7463C43.9 53.5488 44.1987 53.1238 44.2925 53.0125C44.36 52.925 44.3862 52.6713 44.2175 52.7C44.0487 52.7375 43.6112 53.3225 43.3425 53.55C43.0737 53.7775 42.9212 53.2675 42.7925 53.02C42.6 52.4775 43.5325 52.4525 43.8175 52.3C44.28 52.0575 44.6337 51.3463 44.7175 50.8625C44.8262 50.2375 44.9675 49.9875 45.2925 49.965C45.6175 49.9425 45.75 50.2375 45.8675 50.8625C45.9487 51.3463 46.305 52.0563 46.7675 52.3C47.055 52.4525 47.9837 52.475 47.7962 53.02C47.665 53.2675 47.4962 53.775 47.2425 53.55C46.9887 53.325 46.555 52.7375 46.3837 52.7C46.2175 52.6713 46.2412 52.925 46.3112 53.0125C46.4112 53.1225 46.7062 53.55 46.8762 53.7463C47.0887 53.9863 47.1512 54.4275 46.7762 54.6013C46.4012 54.775 46.0262 54.5538 46.0362 54.355C46.0487 54.055 45.8675 53.1988 45.7075 53.1988C45.5775 53.1988 45.5825 53.4238 45.5887 53.6638C45.5337 54.1688 45.8762 54.5725 45.8312 54.8325C45.79 55.085 45.735 55.3538 45.2937 55.3488C44.8462 55.3363 44.7937 55.0988 44.7487 54.8325C44.7062 54.5825 45.0462 54.1675 44.9937 53.6638C45.0112 53.4225 45.0087 53.1988 44.875 53.1988H44.8925ZM44.1512 50.6988C44.4512 50.665 44.2975 50.9738 44.27 51.2488C44.2425 51.5238 44.1625 51.5488 43.8787 51.1638C43.595 50.7788 43.8337 50.735 44.1537 50.7013L44.1512 50.6988ZM46.4512 50.7263C46.7737 50.7688 47.01 50.8138 46.7262 51.1888C46.4412 51.5738 46.3662 51.5438 46.335 51.2763C46.3037 51.0088 46.15 50.6963 46.45 50.7238L46.4512 50.7263ZM46.7262 35.8213C46.4412 36.2038 46.3662 36.1763 46.335 35.905C46.3037 35.6338 46.15 35.3263 46.45 35.355C46.7712 35.39 47.01 35.4425 46.7262 35.8213ZM44.1487 35.3263C44.4487 35.2938 44.295 35.605 44.2675 35.8725C44.24 36.14 44.16 36.1763 43.8762 35.7925C43.5925 35.4088 43.8312 35.3588 44.1512 35.3263H44.1487ZM43.8312 36.9263C44.2937 36.6838 44.6475 35.98 44.7312 35.4913C44.84 34.8625 44.9812 34.6163 45.3062 34.5913C45.6312 34.585 45.7637 34.8638 45.8812 35.4913C45.9625 35.9913 46.3187 36.6825 46.7812 36.9263C47.0687 37.0813 47.9975 37.1013 47.81 37.6475C47.6787 37.9025 47.51 38.4025 47.2562 38.1775C47.0025 37.9525 46.5687 37.365 46.3975 37.33C46.2262 37.295 46.255 37.5625 46.325 37.6388C46.425 37.755 46.72 38.1763 46.89 38.3713C47.1025 38.6125 47.165 39.0588 46.79 39.2463C46.415 39.4338 46.04 39.1963 46.05 38.9963C46.0625 38.6963 45.8812 37.8388 45.7212 37.8388C45.5912 37.8388 45.5962 38.0588 45.6025 38.3063C45.5475 38.81 45.89 39.2113 45.845 39.4725C45.8 39.7338 45.7487 39.995 45.3075 39.9888C44.86 39.9788 44.8075 39.7313 44.7625 39.4725C44.7175 39.2138 45.06 38.81 45.0075 38.3063C45.0275 38.0588 45.0237 37.8388 44.8887 37.8388C44.73 37.8388 44.5512 38.6975 44.5637 38.9963C44.5712 39.1925 44.1937 39.4175 43.82 39.2463C43.4462 39.075 43.5162 38.625 43.7262 38.3888C43.8962 38.1888 44.195 37.7675 44.2887 37.6388C44.3562 37.5638 44.3825 37.2975 44.2137 37.33C44.045 37.3625 43.6075 37.95 43.3387 38.1775C43.07 38.405 42.9175 37.9025 42.7887 37.6475C42.5962 37.1 43.5287 37.0825 43.8137 36.9263H43.8312ZM45.3062 43.0513C45.0937 40.9013 46.4487 40.2838 48.0587 40.4075C47.8462 38.2575 48.9337 37.5538 50.8562 37.635C50.6012 35.1188 52.2987 34.8288 53.6137 34.9125C53.41 33.0375 54.745 32.265 55.6512 32.17H55.9387C55.8137 40.795 52.9312 47.4575 49.4787 52.4275C48.0462 52.0725 47.8162 50.9125 47.9312 49.87C45.815 50.12 44.9662 48.5888 45.26 47.1425C44.455 47.43 42.7162 47.0175 42.5062 45.4875C42.2962 43.9575 43.525 43.0513 45.3062 43.0513ZM38.8062 43.0338C39.1262 43.0663 39.3687 43.115 39.0837 43.4938C38.7987 43.8725 38.7237 43.8475 38.6925 43.5775C38.6612 43.3075 38.5075 43 38.8175 43.0338H38.8062ZM36.5062 43C36.8 42.9663 36.6525 43.28 36.6312 43.545C36.61 43.81 36.5275 43.8475 36.2562 43.4663C35.985 43.085 36.21 43.035 36.5337 43H36.5062ZM36.1875 44.6C36.6475 44.3575 37.0037 43.65 37.085 43.1625C37.195 42.54 37.3312 42.2875 37.66 42.265C37.9887 42.2425 38.1225 42.54 38.23 43.1625C38.315 43.6625 38.67 44.3563 39.13 44.6C39.42 44.7525 40.35 44.775 40.16 45.325C40.0287 45.5788 39.86 46.0813 39.6075 45.855C39.355 45.6288 38.9162 45.04 38.7512 45.005C38.5787 44.975 38.605 45.23 38.6762 45.3175C38.7712 45.4425 39.0675 45.855 39.2387 46.0513C39.4512 46.2925 39.5112 46.7313 39.1412 46.9075C38.7712 47.0838 38.3887 46.8575 38.3975 46.6575C38.4162 46.355 38.2287 45.5013 38.0687 45.5013C37.9412 45.5013 37.9375 45.7188 37.9437 45.96C37.8937 46.46 38.2312 46.875 38.1887 47.135C38.1462 47.395 38.0912 47.6563 37.6487 47.65C37.2062 47.6438 37.1487 47.4 37.1112 47.135C37.065 46.8763 37.4025 46.4725 37.3512 45.96C37.3662 45.72 37.36 45.5013 37.235 45.5013C37.0725 45.5013 36.8925 46.355 36.9037 46.6575C36.9162 46.855 36.535 47.08 36.1637 46.9075C35.7925 46.735 35.8575 46.2925 36.07 46.0513C36.2387 45.8563 36.535 45.43 36.6287 45.3175C36.6987 45.23 36.7262 44.9763 36.5537 45.005C36.3812 45.0338 35.95 45.625 35.6987 45.855C35.4475 46.085 35.2737 45.58 35.145 45.325C34.955 44.775 35.895 44.7525 36.1737 44.6H36.1875ZM35.4962 52.725C35.3287 51.1075 36.3037 50.04 37.6175 50.04C38.9312 50.04 39.905 51.1075 39.7387 52.725C41.18 52.3125 43.0862 53.0075 42.6225 55.4913C44.2675 54.9338 45.535 55.795 45.615 57.145C41.9712 60.9413 38.54 63.045 37.55 63.6263C36.545 63.0513 33.1787 60.9788 29.6037 57.27C29.6037 55.8475 30.9162 54.9138 32.6137 55.4913C32.1475 53.0075 34.0575 52.3138 35.4962 52.725ZM32.7837 45.475C32.5712 47.0025 30.8337 47.4175 30.03 47.13C30.3225 48.5763 29.48 50.105 27.3575 49.8575C27.4775 50.9375 27.2325 52.1575 25.6675 52.4525C22.2137 47.4775 19.33 40.785 19.2 32.165C19.2125 32.165 19.225 32.16 19.2375 32.16H19.6375C20.5475 32.26 21.8775 33.0275 21.68 34.9025C22.9925 34.8188 24.6887 35.1088 24.435 37.625C26.3425 37.5438 27.445 38.2463 27.23 40.3975C28.855 40.2725 30.205 40.8913 29.99 43.0413C31.7675 43.04 32.9962 43.95 32.785 45.4763L32.7837 45.475ZM28.6525 35.8463C28.615 36.1188 28.545 36.15 28.2575 35.7663C27.97 35.3825 28.2175 35.3325 28.5362 35.3C28.8362 35.2675 28.6837 35.5775 28.6525 35.8463ZM30.8362 35.3288C31.155 35.3663 31.3962 35.4163 31.1112 35.795C30.8262 36.1738 30.7525 36.15 30.72 35.8788C30.6875 35.6075 30.545 35.3013 30.8362 35.3288ZM30.2612 35.4538C30.3487 35.9538 30.7012 36.645 31.1637 36.8888C31.4512 37.0438 32.3837 37.0638 32.1912 37.61C32.0625 37.865 31.8937 38.3688 31.6387 38.14C31.3837 37.9113 30.9512 37.3275 30.7825 37.2925C30.6137 37.2575 30.64 37.525 30.7112 37.6013C30.805 37.7175 31.0862 38.1388 31.2737 38.3513C31.4837 38.6013 31.5487 39.035 31.1787 39.2088C30.8087 39.3825 30.4287 39.1588 30.435 38.9588C30.45 38.6588 30.265 37.8013 30.105 37.8013C29.98 37.8013 29.9737 38.0213 29.98 38.2688C29.925 38.7725 30.2612 39.1738 30.22 39.435C30.1787 39.6963 30.1237 39.9575 29.68 39.9513C29.2362 39.945 29.1825 39.6938 29.14 39.435C29.0975 39.1763 29.4375 38.7725 29.3825 38.2688C29.4025 38.0213 29.395 37.8013 29.2575 37.8013C29.0987 37.8013 28.9137 38.66 28.9262 38.9588C28.9387 39.155 28.5587 39.38 28.1762 39.2088C27.7937 39.0375 27.8675 38.5875 28.0812 38.3513C28.2487 38.1513 28.5475 37.73 28.6412 37.6013C28.7125 37.5263 28.7375 37.26 28.5687 37.2925C28.4 37.325 27.965 37.9125 27.71 38.14C27.455 38.3675 27.285 37.865 27.16 37.61C26.9675 37.0625 27.91 37.045 28.185 36.8888C28.6475 36.6463 28.9975 35.9425 29.085 35.4538C29.1937 34.825 29.33 34.5788 29.655 34.5538C29.9862 34.5475 30.1175 34.8263 30.225 35.4538H30.2612ZM77.4237 40.2C77.4237 41.9775 76.2062 43.175 73.5112 43.175H68.4575V32.15H73.3612C75.7012 32.15 76.9537 33.2163 76.9537 35.0325C76.9537 36.325 76.2062 37.2238 75.0262 37.5225C76.58 37.8413 77.4212 38.89 77.4212 40.2H77.4237ZM71.5 36.75H72.68C73.4675 36.75 73.955 36.45 73.955 35.7C73.955 34.95 73.455 34.65 72.68 34.65H71.5V36.75ZM71.5 40.6625H73.0912C73.8575 40.6625 74.2887 40.325 74.2887 39.69C74.2887 39.055 73.8575 38.715 73.0912 38.715H71.5V40.6625ZM83.405 41.5775C83.16 42.72 82.28 43.41 80.8025 43.41C79.23 43.41 78.1275 42.4375 78.1275 40.41V34.525H81.1587V39.75C81.1587 40.625 81.4012 41.135 82.0962 41.135C82.8837 41.135 83.3712 40.4225 83.3712 39.02V34.525H86.375V43.1725H83.6625L83.405 41.5775ZM89.475 40.2C89.5352 40.5145 89.7061 40.7969 89.9568 40.996C90.2075 41.195 90.5213 41.2976 90.8412 41.285C91.3837 41.285 91.7587 41.0975 91.7587 40.7225C91.7587 40.3475 91.4412 40.18 90.8212 40.0475L89.6587 39.8038C88.0862 39.4663 87.2625 38.6613 87.2625 37.2388C87.2625 35.1425 89.06 34.3188 90.9875 34.3188C93.065 34.3188 94.3187 35.1938 94.6175 36.79L91.8675 37.2025C91.7737 36.7025 91.475 36.435 90.8925 36.435C90.4625 36.435 90.1625 36.6413 90.1625 36.9775C90.1625 37.3138 90.405 37.4825 90.855 37.5588L92.015 37.765C93.9237 38.0838 94.7275 39.1125 94.7275 40.5725C94.7275 42.6125 92.95 43.3975 90.815 43.3975C88.85 43.3975 87.54 42.6875 87.065 41.1513L89.475 40.2ZM97.11 30.7813C98.01 30.7813 98.7762 31.3988 98.7762 32.3725C98.7762 33.3463 98.0087 33.9638 97.11 33.9638C96.2112 33.9638 95.445 33.3463 95.445 32.3725C95.445 31.3988 96.2125 30.7813 97.11 30.7813ZM98.625 34.525V43.1725H95.625V34.525H98.625ZM102.932 36.1925C103.382 34.9 104.392 34.32 105.682 34.32C107.011 34.32 108.21 35.1075 108.21 37.0913V43.175H105.21V38.25C105.21 37.37 104.96 36.8275 104.181 36.8275C103.526 36.8275 102.965 37.2213 102.965 38.55V43.1725H99.9375V34.525H102.652L102.932 36.1925ZM114.704 40.05L117.212 40.8375C116.712 42.69 115.19 43.4 113.467 43.4C110.905 43.4 109.032 41.7725 109.032 38.945C109.032 36.025 110.679 34.32 113.407 34.32C115.97 34.32 117.282 35.9675 117.282 38.3638L117.245 39.4513H111.95C112.007 40.5188 112.53 41.0975 113.43 41.0975C114.055 41.0975 114.497 40.8175 114.702 40.0513L114.704 40.05ZM114.404 37.915C114.404 37.165 114.154 36.51 113.299 36.51C112.569 36.51 112.101 37.11 112.026 37.915H114.404Z" fill="#838383"/>
<path d="M120.037 40.2C120.098 40.5144 120.269 40.7968 120.519 40.9959C120.77 41.195 121.084 41.2976 121.404 41.285C121.946 41.285 122.321 41.0975 122.321 40.7225C122.321 40.3475 122.004 40.18 121.386 40.0475L120.224 39.8037C118.651 39.4662 117.829 38.6612 117.829 37.2387C117.829 35.1425 119.625 34.3187 121.554 34.3187C123.632 34.3187 124.886 35.1812 125.185 36.79L122.432 37.2025C122.339 36.7025 122.04 36.435 121.457 36.435C121.027 36.435 120.727 36.6412 120.727 36.9775C120.727 37.3137 120.97 37.4825 121.42 37.5587L122.582 37.765C124.491 38.0837 125.295 39.1125 125.295 40.5725C125.295 42.6125 123.516 43.3975 121.382 43.3975C119.417 43.3975 118.107 42.6875 117.632 41.1512L120.037 40.2Z" fill="#838383"/>
<path d="M128.05 40.2C128.11 40.5144 128.281 40.7968 128.532 40.9959C128.783 41.195 129.096 41.2976 129.416 41.285C129.959 41.285 130.335 41.0975 130.335 40.7225C130.335 40.3475 130.016 40.18 129.398 40.0475L128.238 39.8037C126.665 39.4662 125.84 38.6612 125.84 37.2387C125.84 35.1425 127.638 34.3187 129.565 34.3187C131.643 34.3187 132.896 35.1937 133.196 36.79L130.443 37.2025C130.35 36.7025 130.05 36.435 129.47 36.435C129.04 36.435 128.74 36.6412 128.74 36.9775C128.74 37.3137 128.983 37.4825 129.433 37.5587L130.593 37.765C132.503 38.0837 133.308 39.1125 133.308 40.5725C133.308 42.6125 131.529 43.3975 129.395 43.3975C127.43 43.3975 126.12 42.6875 125.645 41.1512L128.05 40.2ZM74.6325 56.5225C74.2788 56.2225 74.1475 55.81 74.0163 55.2875L73.6788 53.9212C73.4913 53.1337 73.1738 52.9837 72.4613 52.9837H71.5075V56.5212H68.4575V45.5H73.1738C75.6438 45.5 77.3488 46.4537 77.3488 48.9625C77.3488 50.7037 76.2238 51.565 75.0088 51.77C76.0188 51.9762 76.525 52.4237 76.7875 53.38L77.3125 55.27C77.4438 55.77 77.5925 56.145 77.9875 56.525L74.6325 56.5225ZM71.5075 50.515H72.6875C73.7538 50.515 74.2225 50.0825 74.2225 49.2975C74.2225 48.5125 73.7538 48.08 72.6875 48.08H71.5075V50.515ZM83.4675 53.3975L85.975 54.185C85.475 56.0387 83.9525 56.7475 82.2313 56.7475C79.6663 56.7475 77.7938 55.1187 77.7938 52.2937C77.7938 49.3737 79.4413 47.6687 82.1688 47.6687C84.7313 47.6687 86.0438 49.3162 86.0438 51.7112L86.0063 52.7987H80.7313C80.7875 53.8637 81.3113 54.4437 82.21 54.4437C82.845 54.4437 83.2763 54.165 83.4825 53.3975H83.4675ZM83.1675 51.25C83.1675 50.5025 82.9175 49.8475 82.0638 49.8475C81.3338 49.8475 80.8663 50.4475 80.7913 51.25H83.1675ZM85.8075 47.875H89L89.9925 51.3562L90.555 53.4725H90.5925C90.5925 53.4725 90.78 52.5975 91.1738 51.3562L92.2963 47.875H95.2338L92.09 56.5212H88.8338L85.8075 47.875ZM97.3725 44.1337C98.2725 44.1337 99.04 44.7512 99.04 45.725C99.04 46.6987 98.2713 47.315 97.3725 47.315C96.4738 47.315 95.7075 46.6987 95.7075 45.725C95.7075 44.7512 96.475 44.1337 97.3725 44.1337ZM98.875 47.875V56.5212H95.875V47.875H98.875ZM105.484 53.3975L107.991 54.185C107.491 56.0387 105.97 56.7475 104.249 56.7475C101.686 56.7475 99.8138 55.1187 99.8138 52.2937C99.8138 49.3737 101.461 47.6687 104.189 47.6687C106.751 47.6687 108.064 49.3162 108.064 51.7112L108.026 52.7987H102.75C102.806 53.8637 103.329 54.4437 104.228 54.4437C104.853 54.4437 105.296 54.165 105.503 53.3975H105.484ZM105.198 51.25C105.198 50.5025 104.948 49.8475 104.094 49.8475C103.363 49.8475 102.894 50.4475 102.821 51.25H105.198ZM116.148 47.875L116.765 50.875L117.265 53.59H117.303L117.845 50.9125L118.538 47.8625H121.475L119.138 56.5087H115.763L115.238 53.9812L114.769 51.2112H114.731L114.264 53.9812L113.739 56.5087H110.37L108.004 47.875H111.054L111.746 50.925L112.289 53.6025H112.326L112.826 50.8875L113.445 47.8875L116.148 47.875ZM86.8 26.975C86.8 27.3875 86.925 27.6 87.2313 27.6C87.4188 27.6 87.6063 27.525 87.7738 27.4312V29.5662C87.3613 29.8662 86.97 29.9787 86.2763 29.9787C85.1163 29.9787 84.48 29.4537 84.1413 28.6112C83.6413 29.5112 82.8863 30.0162 81.6413 30.0162C80.0513 30.0162 79.0575 29.0787 79.0575 27.6012C79.0575 25.7475 80.3863 24.8137 82.9875 24.8137H83.8675V24.2337C83.8675 23.6712 83.68 23.2787 83.1375 23.2787C82.6125 23.2787 82.3713 23.5975 82.3338 24.3087L79.45 23.8587C79.6188 22.08 81.005 20.9587 83.2313 20.9587C85.7025 20.9587 86.7875 22.0462 86.7875 23.9362L86.8 26.975ZM83.88 26.3575H83.5C82.4125 26.3575 82.0375 26.695 82.0375 27.2575C82.0375 27.67 82.3175 27.9875 82.8425 27.9875C83.3475 27.9875 83.89 27.7375 83.89 26.9212L83.88 26.3575ZM94.1575 24.58C93.8013 24.4487 93.595 24.355 93.1075 24.355C92.395 24.355 91.5363 24.635 91.5363 26.1712V29.8212H88.52V21.1712H91.1038L91.4038 23.3062C91.6463 21.8637 92.8638 21.1712 94.3413 21.1712L94.1575 24.58Z" fill="#838383"/>
<path d="M94.625 21.1726H97.8088L98.8 24.6551L99.3625 26.7701H99.4C99.4 26.7701 99.5875 25.8951 99.98 24.6551L101.103 21.1726H104.04L100.895 29.8226H97.65L94.625 21.1726ZM111.315 26.9751C111.315 27.3876 111.44 27.6001 111.746 27.6001C111.938 27.5901 112.125 27.532 112.289 27.4313V29.5663C111.876 29.8663 111.484 29.9788 110.791 29.9788C109.631 29.9788 108.995 29.4538 108.658 28.6113C108.158 29.5113 107.404 30.0163 106.158 30.0163C104.566 30.0163 103.574 29.0788 103.574 27.6013C103.574 25.7476 104.901 24.8138 107.504 24.8138H108.384V24.2338C108.384 23.6713 108.196 23.2788 107.654 23.2788C107.129 23.2788 106.886 23.5976 106.849 24.3088L103.966 23.8588C104.134 22.0801 105.52 20.9588 107.748 20.9588C110.219 20.9588 111.304 22.0463 111.304 23.9363L111.315 26.9751ZM108.395 26.3576H108C106.915 26.3576 106.541 26.6951 106.541 27.2576C106.541 27.6701 106.821 27.9876 107.346 27.9876C107.853 27.9876 108.396 27.7376 108.396 26.9213L108.395 26.3576ZM118.67 24.5801C118.314 24.4488 118.11 24.3551 117.62 24.3551C116.91 24.3551 116.049 24.6351 116.049 26.1713V29.8213H113.049V21.1713H115.633L115.933 23.3063C116.176 21.8638 117.395 21.1713 118.873 21.1713L118.67 24.5801ZM125.238 18.2526H128.271V29.8213H125.538L125.258 28.3238C124.939 29.4838 123.908 30.0463 122.599 30.0463C120.578 30.0463 119.136 28.4738 119.136 25.6651C119.136 22.7651 120.511 20.9651 122.955 20.9651C124.061 20.9651 124.939 21.4701 125.238 22.2938V18.2526ZM125.258 24.8776C125.258 23.7738 124.714 23.1751 123.835 23.1751C122.956 23.1751 122.206 23.8301 122.206 25.5526C122.206 26.9751 122.806 27.7238 123.796 27.7238C124.565 27.7238 125.259 27.1438 125.259 25.9651L125.258 24.8776ZM68.4575 29.8226V18.7976H71.5275V22.8976H75.3088V18.7976H78.3788V29.8226H75.3088V25.5538H71.525V29.8226H68.4575Z" fill="#838383"/>
</svg>
