<svg width="61" height="30" viewBox="0 0 61 30" fill="none" xmlns="http://www.w3.org/2000/svg">
<g clip-path="url(#clip0_175_52)">
<path d="M30 0H0V30H30V0Z" fill="#838383"/>
<path d="M14 17L8.80005 7.30005H11.2L14.2 13.4C14.2 13.5 14.3 13.6 14.4 13.7C14.5 13.8 14.5 13.9 14.6 14.1L14.7 14.2V14.3C14.8 14.5 14.8 14.6 14.9 14.8C15 14.9 15 15.1 15.1 15.2C15.2 14.9 15.4 14.7 15.5 14.3C15.6 14 15.8 13.7 16 13.4L19 7.30005H21.2L16 17.1V23.3H14V17Z" fill="white"/>
<path d="M43.7 5.80005C45.2 5.80005 46.5 6.20005 47.5 7.00005L46.5 8.20005C45.6 7.60005 44.7 7.20005 43.6 7.20005C41.9 7.20005 40.6 8.10005 39.9 9.80005C39.5 10.8 39.3 12.1 39.3 13.8C39.3 15.1 39.5 16.2 39.8 17C40.6 18.9 41.9 19.8 43.9 19.8C45 19.8 46 19.5 46.9 18.8L47.9 20.1C46.6 20.9 45.2 21.3 43.7 21.3C41.9 21.3 40.4 20.6 39.2 19.1C38 17.7 37.5 15.8 37.5 13.5C37.5 11.2 38.1 9.40005 39.3 7.90005C40.4 6.60005 41.9 5.80005 43.7 5.80005Z" fill="#838383"/>
<path d="M49.3999 15.7C49.3999 13.9 49.7999 12.5 50.6999 11.5C51.5999 10.5 52.6999 9.90002 54.0999 9.90002C55.6999 9.90002 56.9999 10.5 57.8999 11.8C58.5999 12.8 58.8999 14.2 58.8999 15.9C58.8999 17.9 58.2999 19.5 57.1999 20.5C56.3999 21.2 55.3999 21.6 54.1999 21.6C52.6999 21.6 51.5999 21.1 50.6999 20C49.7999 19 49.3999 17.5 49.3999 15.7ZM56.3999 12.8C55.8999 11.9 55.1999 11.4 54.0999 11.4C52.9999 11.4 52.2999 11.8 51.7999 12.6C51.3999 13.2 51.2999 14.2 51.2999 15.5C51.2999 17.2 51.4999 18.4 51.9999 19.1C52.4999 19.8 53.1999 20.2 54.1999 20.2C55.3999 20.2 56.1999 19.6 56.5999 18.5C56.7999 17.9 56.8999 17.1 56.8999 16.1C56.9999 14.6 56.7999 13.5 56.3999 12.8Z" fill="#838383"/>
</g>
<defs>
<clipPath id="clip0_175_52">
<rect width="145" height="30" fill="white"/>
</clipPath>
</defs>
</svg>
