<svg width="342" height="20" viewBox="0 0 342 20" fill="none" xmlns="http://www.w3.org/2000/svg">
<line y1="10.5" x2="150" y2="10.5" stroke="#949494" stroke-opacity="0.5"/>
<path d="M165.29 16H167.27L171.35 5.035H169.355L166.985 11.35C166.775 11.905 166.55 12.58 166.28 13.54C166.04 12.655 165.83 12.01 165.59 11.35L163.19 5.035H161.15L165.29 16ZM171.985 8.095C171.985 9.775 172.96 10.84 174.82 11.245L176.56 11.635C177.46 11.83 177.835 12.265 177.835 13C177.835 13.915 177.025 14.47 175.75 14.47C174.52 14.47 173.77 13.915 173.755 12.985H171.835C171.88 14.95 173.41 16.195 175.75 16.195C178.165 16.195 179.755 14.875 179.755 12.835C179.755 11.2 178.84 10.24 176.965 9.835L175.24 9.46C174.325 9.25 173.905 8.815 173.905 8.035C173.905 7.12 174.67 6.55 175.855 6.55C176.935 6.55 177.61 7.105 177.655 8.05H179.575C179.515 6.07 178.105 4.84 175.885 4.84C173.575 4.84 171.985 6.175 171.985 8.095Z" fill="#3A3A3A"/>
<line x1="192" y1="10.5" x2="342" y2="10.5" stroke="#949494" stroke-opacity="0.5"/>
</svg>
