<svg width="179" height="177" viewBox="0 0 179 177" fill="none" xmlns="http://www.w3.org/2000/svg">
<g clip-path="url(#clip0_85_183)">
<path d="M100.918 109.372C101.536 109.506 101.938 109.616 102.34 109.725C106.109 111.123 109.923 112.503 113.692 113.9C114.762 114.28 115.786 114.677 116.843 115.164C117.466 115.451 118.076 115.845 118.641 116.256C119.945 117.272 120.104 118.401 119.184 119.825C118.847 120.311 118.493 120.752 118.077 121.163C115.916 123.562 113.563 125.721 111.052 127.733C110.693 128.02 110.335 128.307 109.902 128.673C110.184 128.879 110.404 129.056 110.67 129.216C118.283 132.912 125.518 137.265 132.913 141.351C133.241 141.54 133.569 141.729 133.913 141.963C134.37 142.362 134.555 142.862 134.359 143.451C134.209 144.023 133.776 144.389 133.197 144.499C132.754 144.559 132.278 144.529 131.802 144.498C130.941 144.403 130.017 144.279 129.139 144.138C128.709 144.091 128.278 144.043 127.893 143.979C125.842 143.6 123.792 143.22 121.724 142.796C120.382 142.517 118.977 142.209 117.676 141.76C110.968 139.537 104.306 137.297 97.8117 134.53C94.6098 133.13 91.2813 132.087 88.0101 130.919C87.699 130.776 87.3592 130.695 87.0481 130.551C86.0645 129.985 85.9681 128.884 86.8959 128.18C87.1805 127.972 87.4819 127.809 87.8 127.692C89.9192 126.858 92.0383 126.024 94.1743 125.236C94.5378 125.101 94.856 124.984 95.4468 124.766C93.9318 123.879 92.649 123.062 91.292 122.323C89.5449 121.368 87.8147 120.457 86.0676 119.501C85.6775 119.284 85.3426 119.356 84.979 119.49C78.2796 122.324 71.2971 123.972 64.1036 124.769C56.666 125.603 49.4377 124.347 42.4431 121.765C38.2554 120.213 35.055 117.418 32.6244 113.771C31.9324 112.735 31.4508 111.571 30.8951 110.485C27.7956 104.606 26.83 98.3528 27.5102 91.8019C28.0694 86.7418 29.3416 81.9347 31.1521 77.187C33.7795 70.1755 37.3737 63.6851 41.5279 57.4526C48.4308 47.0557 56.4229 37.6509 66.0235 29.6662C71.1144 25.4117 76.5142 21.7145 82.4767 18.8423C89.616 15.3808 97.1173 13.18 105.108 12.864C113.053 12.5649 120.059 15.0391 126.123 20.1336C129.696 23.1004 132.689 26.5915 134.919 30.674C137.934 36.3255 139.031 42.3752 138.454 48.7849C138.017 53.3353 136.9 57.7238 135.488 62.0142C129.767 79.6691 119.627 94.3074 105.194 105.987C104.072 106.865 102.968 107.789 101.846 108.668C101.619 108.752 101.425 108.927 100.918 109.372Z" fill="#FFD6FF"/>
<path d="M40.9902 42.9852C40.7657 43.636 40.6272 44.1003 40.4265 44.5358C38.993 47.6468 37.5762 50.8033 36.0973 53.9311C33.7414 58.8801 31.2443 63.7263 28.9506 68.704C26.1815 74.6317 24.2953 80.8532 23.3998 87.3803C22.4706 93.8163 22.8286 100.242 24.8374 106.523C26.3212 111.243 28.5608 115.631 31.7786 119.453C32.607 120.438 33.6172 121.356 34.5651 122.245C35.2138 122.884 35.8458 123.477 36.4491 124.132C36.9566 124.667 36.9426 125.189 36.6342 125.612C36.2804 126.053 35.7302 126.101 35.0744 125.723C34.8088 125.563 34.5431 125.403 34.3061 125.181C30.6226 122.616 27.9242 119.223 25.7328 115.384C20.5691 106.292 19.2305 96.5098 20.7291 86.3006C21.6106 80.295 23.3129 74.5546 25.7283 69.0672C28.8149 62.0412 32.4616 55.2731 36.2495 48.6079C37.1361 47.0929 38.1808 45.7262 39.2087 44.3141C39.5744 43.766 40.0645 43.2752 40.9902 42.9852Z" fill="#FFD6FF"/>
<path d="M141.786 28.2937C143.636 33.4458 144.266 38.7901 144.193 44.1875C144.118 50.9794 142.995 57.5904 140.655 63.9796C139.695 66.5544 138.627 69.1174 137.588 71.6181C137.432 72.0369 137.186 72.4892 136.952 72.8339C136.529 73.5064 136.046 73.7364 135.565 73.5524C135.067 73.3231 134.883 72.8232 135.119 72.0646C135.2 71.7248 135.343 71.4137 135.487 71.1026C136.545 68.2335 137.648 65.3475 138.599 62.4665C141.335 54.0721 142.179 45.4471 140.949 36.6581C140.199 31.4096 138.251 26.5518 135.428 22.1204C133.847 19.6571 131.64 17.735 129.45 15.8583C126.865 13.611 124.045 11.7084 120.963 10.2126C120.2 9.82312 119.482 9.41684 118.747 8.96512C118.419 8.77632 118.12 8.5253 117.821 8.27428C117.505 7.97781 117.098 7.7149 117.327 7.21713C117.528 6.78159 118.004 6.81239 118.344 6.89353C119.239 7.07959 120.071 7.23697 120.909 7.54747C125.295 9.07832 129.144 11.5306 132.478 14.6889C134.69 16.7642 137.01 18.8513 138.476 21.5634C139.604 23.7805 140.641 26.0312 141.786 28.2937Z" fill="#FFD6FF"/>
</g>
<defs>
<clipPath id="clip0_85_183">
<rect width="140" height="136.125" fill="white" transform="translate(0.520752 48.7422) rotate(-20.2602)"/>
</clipPath>
</defs>
</svg>
