<svg width="24" height="494" viewBox="0 0 24 494" fill="none" xmlns="http://www.w3.org/2000/svg">
<line x1="12.5" y1="2.18557e-08" x2="12.5" y2="225" stroke="#949494" stroke-opacity="0.5"/>
<line x1="12.5" y1="269" x2="12.5" y2="494" stroke="#949494" stroke-opacity="0.5"/>
<path d="M5.148 254H7.524L12.42 240.842H10.026L7.182 248.42C6.93 249.086 6.66 249.896 6.336 251.048C6.048 249.986 5.796 249.212 5.508 248.42L2.628 240.842H0.18L5.148 254ZM13.1825 244.514C13.1825 246.53 14.3525 247.808 16.5845 248.294L18.6725 248.762C19.7525 248.996 20.2025 249.518 20.2025 250.4C20.2025 251.498 19.2305 252.164 17.7005 252.164C16.2245 252.164 15.3245 251.498 15.3065 250.382H13.0025C13.0565 252.74 14.8925 254.234 17.7005 254.234C20.5985 254.234 22.5065 252.65 22.5065 250.202C22.5065 248.24 21.4085 247.088 19.1585 246.602L17.0885 246.152C15.9905 245.9 15.4865 245.378 15.4865 244.442C15.4865 243.344 16.4045 242.66 17.8265 242.66C19.1225 242.66 19.9325 243.326 19.9865 244.46H22.2905C22.2185 242.084 20.5265 240.608 17.8625 240.608C15.0905 240.608 13.1825 242.21 13.1825 244.514Z" fill="#3A3A3A"/>
</svg>
